#N canvas 340 142 682 548 10;
#X declare -lib mrpeach/udpreceive;
#X declare -lib mrpeach/unpackOSC;
#X declare -lib mrpeach/routeOSC;
#X declare -lib mrpeach;
#X obj 4 38 import mrpeach/udpreceive;
#X obj 4 68 import mrpeach/unpackOSC;
#X obj 5 96 import mrpeach/routeOSC;
#X obj 7 163 unpackOSC;
#X obj 7 299 vsl 15 128 0 127 0 0 empty empty empty 0 -9 0 10 -262144
-1 -1 3800 1;
#X floatatom 7 271 5 0 0 0 - - -;
#X obj 45 271 print /v;
#X obj 121 270 print /test;
#X obj 7 199 routeOSC /v;
#X obj 4 14 import mrpeach;
#X text 85 162 RECEIVE PART;
#X obj 82 199 routeOSC /test;
#X obj 50 340 bng 15 250 50 0 empty empty empty 17 7 0 10 -262144 -1
-1;
#X obj 7 136 udpreceive 3002;
#X obj 217 143 print;
#X obj 233 188 print 2;
#X connect 3 0 8 0;
#X connect 3 0 11 0;
#X connect 3 0 15 0;
#X connect 5 0 4 0;
#X connect 5 0 12 0;
#X connect 8 0 6 0;
#X connect 8 0 5 0;
#X connect 11 0 7 0;
#X connect 13 0 3 0;
#X connect 13 1 14 0;
