#N canvas 524 57 682 548 10;
#X declare -lib mrpeach/udpsend;
#X declare -lib mrpeach/packOSC;
#X obj 295 76 loadbang;
#X obj 360 17 import mrpeach/udpsend;
#X obj 360 37 import mrpeach/packOSC;
#X msg 326 212 disconnect;
#X obj 310 189 packOSC;
#X obj 295 236 udpsend;
#X obj 453 315 vsl 15 128 0 127 0 0 empty empty empty 0 -9 0 10 -262144
-1 -1 0 1;
#X msg 342 402 send /test/v \$1;
#X msg 243 400 send /test \$1;
#X msg 510 182 connect 75.101.163.44 3004;
#X msg 509 131 connect localhost 3003;
#X obj 310 167 r \$0-osc_packer;
#X obj 243 425 s \$0-osc_packer;
#X obj 342 426 s \$0-osc_packer;
#X msg 295 104 localhost 3003;
#X text 533 111 load bang;
#X text 534 154 upsend;
#X msg 295 146 connect \$1 \$2;
#X obj 295 125 pack s f;
#X obj 105 138 bng 15 250 50 0 empty empty empty 17 7 0 10 -262144
-1 -1;
#X obj 105 119 bng 15 250 50 0 empty empty empty 17 7 0 10 -262144
-1 -1;
#X text 123 118 connect;
#X obj 241 377 hsl 128 15 0 127 0 0 empty empty empty -2 -8 0 10 -262144
-1 -1 0 1;
#X obj 98 78 inlet;
#X obj 344 261 print;
#X msg 243 400 send /test \$1;
#X obj 243 425 s \$0-osc_packer;
#X obj 229 304 s \$0-osc_packer;
#X msg 229 280 send \$1 \$2;
#X obj 149 77 inlet;
#X text 253 347 HARD TESTERS;
#X text 35 56 message ip port;
#X text 149 54 path value;
#X obj 508 262 print Connected!;
#X obj 508 284 print Disconnected!;
#X text 123 136 disconnect;
#X obj 198 76 inlet;
#X obj 229 257 pack s list;
#X obj 169 257 pack s s;
#X connect 0 0 14 0;
#X connect 3 0 5 0;
#X connect 4 0 5 0;
#X connect 5 0 24 0;
#X connect 6 0 7 0;
#X connect 7 0 13 0;
#X connect 8 0 12 0;
#X connect 11 0 4 0;
#X connect 14 0 18 0;
#X connect 17 0 5 0;
#X connect 17 0 33 0;
#X connect 18 0 17 0;
#X connect 19 0 3 0;
#X connect 19 0 34 0;
#X connect 20 0 14 0;
#X connect 22 0 8 0;
#X connect 23 0 18 0;
#X connect 25 0 26 0;
#X connect 28 0 27 0;
#X connect 29 0 37 0;
#X connect 36 0 38 0;
#X connect 37 0 28 0;
#X connect 38 0 28 0;
#X coords 0 -1 1 1 85 60 1 100 100;
