#N canvas 183 38 1073 653 10;
#X declare -path ../pd;
#X declare -path ../../pd;
#X declare -path ../pd;
#X declare -path ../../pd;
#X declare -path ../pd;
#X declare -path ../../pd;
#X obj 597 268 synth-machine;
#X obj 210 319 synth-output;
#X floatatom 98 528 5 0 0 0 - - -;
#X floatatom 209 528 5 0 0 0 - - -;
#X obj 150 490 freqmod;
#X obj 375 71 simple_sampler;
#X obj 131 63 simple_sampler;
#X obj 605 122 delay-machine;
#X obj 301 472 synth-output;
#X connect 2 0 4 0;
#X connect 3 0 4 1;
#X connect 4 0 1 0;
#X connect 4 1 1 0;
#X connect 5 0 8 0;
#X connect 5 1 8 0;
