#N canvas 441 55 823 568 12;
#N canvas 1 22 450 300 (subpatch) 0;
#X array \$0-array1 2.64269e+06 float 2;
#X coords 0 1 2.64269e+06 -1 200 30 1;
#X restore 457 259 graph;
#X obj 49 77 openpanel;
#X obj 459 151 bng 15 250 50 0 empty empty empty 0 -6 0 8 -262144 -1
-1;
#X obj 77 221 soundfiler;
#X obj 77 259 expr 44100 / $f1;
#X floatatom 47 390 5 0 0 0 - - -;
#X obj 47 485 phasor~;
#X obj 459 298 hsl 200 15 0 1 0 0 empty empty empty -2 -6 0 8 -262144
-1 -1 12215 1;
#X text 457 321 0;
#X text 650 318 1;
#X obj 47 458 *;
#X obj 482 152 hsl 128 15 -2 2 0 0 empty empty empty -2 -6 0 8 -262144
-1 -1 9200 1;
#X text 479 166 -2;
#X text 604 166 2;
#X obj 461 222 hsl 200 15 0 1 0 0 empty empty empty -2 -6 0 8 -262144
-1 -1 12300 1;
#X obj 461 201 hsl 200 15 0 1 0 0 empty empty empty -2 -6 0 8 -262144
-1 -1 9300 1;
#X obj 47 519 +~;
#X obj 198 439 -;
#X floatatom 198 405 5 0 0 0 - - -;
#X obj 266 401 t f b;
#X obj 198 480 *;
#X obj 48 580 *~;
#X obj 72 610 /~;
#X obj 122 611 +~;
#X obj 41 297 expr 1 / $f1;
#X obj 41 348 *;
#X obj 190 649 unsig~ 20;
#X text 458 180 0;
#X text 654 179 1;
#X text 47 1 3.4.2.3. any position;
#X text 76 10 first load sound file;
#X text 353 164 left limit;
#X text 674 220 right limit;
#X text 453 369 slider shows playing position;
#X text 243 436 difference of both (;
#X text 240 455 always calculated \, not;
#X text 239 498 input on the left);
#X text 513 896 www.pd-tutorial.com;
#X text 236 472 only if there is a;
#X text 523 863 Johannes Kreidler;
#X obj 84 358 t b f;
#X obj 48 687 tabread4~ \$0-array1;
#X obj 161 71 f \$0;
#X obj 161 95 makefilename %i-array1;
#X obj 64 136 pack s s;
#X msg 51 167 read -resize \$1 \$2;
#X obj 202 140 print the_file_name;
#X obj 161 44 loadbang;
#X obj 181 211 print hola!;
#X obj 48 763 outlet~;
#X obj 113 762 outlet~;
#X text 104 733 comment;
#X obj 552 105 soundoutput;
#X connect 1 0 44 0;
#X connect 1 0 46 0;
#X connect 2 0 1 0;
#X connect 3 0 20 1;
#X connect 3 0 22 1;
#X connect 3 0 4 0;
#X connect 4 0 25 1;
#X connect 5 0 10 0;
#X connect 6 0 16 0;
#X connect 10 0 6 0;
#X connect 11 0 40 0;
#X connect 14 0 18 0;
#X connect 15 0 19 0;
#X connect 16 0 21 0;
#X connect 17 0 20 0;
#X connect 17 0 24 0;
#X connect 18 0 17 0;
#X connect 19 0 17 1;
#X connect 19 0 16 1;
#X connect 19 0 23 1;
#X connect 19 1 18 0;
#X connect 20 0 21 1;
#X connect 21 0 22 0;
#X connect 21 0 41 0;
#X connect 22 0 23 0;
#X connect 23 0 26 0;
#X connect 24 0 25 0;
#X connect 25 0 5 0;
#X connect 26 0 7 0;
#X connect 40 0 5 0;
#X connect 40 1 10 1;
#X connect 41 0 49 0;
#X connect 41 0 50 0;
#X connect 41 0 52 0;
#X connect 41 0 52 1;
#X connect 42 0 43 0;
#X connect 43 0 44 1;
#X connect 44 0 45 0;
#X connect 45 0 3 0;
#X connect 45 0 48 0;
#X connect 47 0 42 0;
#X coords 0 -1 1 1 215 240 1 450 100;
